<?xml version="1.0" encoding="UTF-8" standalone="no"?>
<svg
   width="24"
   height="24"
   version="1.1"
   id="svg1"
   sodipodi:docname="network-unavailable.svg"
   inkscape:version="1.4.2 (unknown)"
   xmlns:inkscape="http://www.inkscape.org/namespaces/inkscape"
   xmlns:sodipodi="http://sodipodi.sourceforge.net/DTD/sodipodi-0.dtd"
   xmlns="http://www.w3.org/2000/svg"
   xmlns:svg="http://www.w3.org/2000/svg">
  <defs
     id="defs1" />
  <sodipodi:namedview
     id="namedview1"
     pagecolor="#ffffff"
     bordercolor="#999999"
     borderopacity="1"
     inkscape:showpageshadow="2"
     inkscape:pageopacity="0"
     inkscape:pagecheckerboard="0"
     inkscape:deskcolor="#d1d1d1"
     inkscape:zoom="12.245804"
     inkscape:cx="8.6968565"
     inkscape:cy="16.454616"
     inkscape:window-width="1920"
     inkscape:window-height="994"
     inkscape:window-x="0"
     inkscape:window-y="0"
     inkscape:window-maximized="1"
     inkscape:current-layer="svg1" />
  <style
     type="text/css"
     id="current-color-scheme">.ColorScheme-Text{color:#31363b;}.ColorScheme-Background{color:#eff0f1;}.ColorScheme-Highlight{color:#3498db;}.ColorScheme-ViewText{color:#31363b;}.ColorScheme-ViewBackground{color:#fcfcfc;}.ColorScheme-ViewHover{color:#93cee9;}.ColorScheme-ViewFocus{color:#3daee9;}.ColorScheme-ButtonText{color:#31363b;}.ColorScheme-ButtonBackground{color:#eff0f1;}.ColorScheme-ButtonHover{color:#93cee9;}.ColorScheme-ButtonFocus{color:#3daee9;}.ColorScheme-NegativeText { color: #e74c3c; } </style>
  <g
     id="g1"
     transform="translate(0,-35.5)">
    <path
       style="color:#e5e9ef;opacity:0.5;fill:#d3dae3;fill-opacity:1;stroke:none;stroke-width:0.99922"
       d="m 6,39.5 c -1,0 -2,1 -2,2 v 8 c 0,1 1.04598,2 2.02184,2.00007 L 9.81591,51.5 c 0,0 0,1 0.99844,1 v 0 1 H 4.52418 c -0.69891,0 -0.69891,1 0,1 h 6.29017 c 0,0 0,1 0.99844,1 v 0 c 0.99844,0 0.99844,-1 0.99844,-1 h 5.8908 c 0.79875,0 0.79875,-1 0,-1 h -5.8908 v -1 c 0.99844,0 0.99844,-1 0.99844,-1 v 0 0 0 0 0 l -1.0234,-1 v -10 c 0.69891,0 0.69891,-1 0,-1 z m 0.52106,1 h 5.26677 0.99844 v 10 l 1.0234,1 h 0.97348 c 0.69891,0 0.69891,-1 0,-1 l -8.39057,1e-5 C 5.5484,50.5 5,49.99345 5,49 v -7 c 0,-1 0.52262,-1.5 1.52106,-1.5 z"
       id="rect4144-9-6-7-3"
       class="ColorScheme-Text "
       sodipodi:nodetypes="ccccccccccccccccccccccccccccccccccccccc" />
    <path
       class="ColorScheme-Text"
       d="M 16.00624,38.5 C 15.59022,38.5 15,39 15,39.5 v 3 c 0,0.5 0.59022,1 1.00624,1 H 17 V 46 c 0,0.7 1,0.7 1,0 v -2.5 h 1.00156 C 19.50078,43.5 20,43 20,42.5 v -3 c 0,-0.5 -0.49922,-1 -0.99844,-1 z m -0.006,1 h 3.00156 -0.002 v 2 1 h -3 l 0.006,-1 z"
       stroke-opacity="0"
       stroke-width="0.334742"
       id="path5-3-5-5"
       style="color:#d1d5e9;opacity:0.5;fill:#d3dae3;fill-opacity:1"
       sodipodi:nodetypes="ssscccccssssscccccccc" />
    <path
       style="color:#e74c3c;fill:#dc3545;stroke-width:0.769418"
       d="m 15.96098,47.5 a 0.46164989,0.46164989 0 0 0 -0.3261,0.135251 0.46164989,0.46164989 0 0 0 0,0.652203 l 1.21273,1.212725 -1.21273,1.212735 a 0.46164989,0.46164989 0 0 0 0,0.652205 0.46164989,0.46164989 0 0 0 0.65221,0 l 1.21272,-1.212735 1.21273,1.212735 a 0.46164989,0.46164989 0 0 0 0.65221,0 0.46164989,0.46164989 0 0 0 0,-0.652205 l -1.21273,-1.212735 1.21273,-1.212725 a 0.46164989,0.46164989 0 0 0 0,-0.652203 A 0.46164989,0.46164989 0 0 0 19.03865,47.5 0.46164989,0.46164989 0 0 0 18.71254,47.635251 l -1.21273,1.212724 -1.21272,-1.212724 A 0.46164989,0.46164989 0 0 0 15.96098,47.5 Z"
       id="path40775-5"
       class="ColorScheme-NegativeText" />
  </g>
</svg>
