<?xml version="1.0" encoding="UTF-8" standalone="no"?>
<svg
   version="1.1"
   viewBox="0 0 21.999996 21.999996"
   id="svg1"
   sodipodi:docname="activities.svg"
   width="21.999996"
   height="21.999996"
   inkscape:version="1.3.2 (091e20ef0f, 2023-11-25)"
   xmlns:inkscape="http://www.inkscape.org/namespaces/inkscape"
   xmlns:sodipodi="http://sodipodi.sourceforge.net/DTD/sodipodi-0.dtd"
   xmlns="http://www.w3.org/2000/svg"
   xmlns:svg="http://www.w3.org/2000/svg">
  <defs
     id="defs1" />
  <sodipodi:namedview
     id="namedview1"
     pagecolor="#ffffff"
     bordercolor="#999999"
     borderopacity="1"
     inkscape:showpageshadow="2"
     inkscape:pageopacity="0"
     inkscape:pagecheckerboard="0"
     inkscape:deskcolor="#d1d1d1"
     inkscape:zoom="16.83798"
     inkscape:cx="-4.3057421"
     inkscape:cy="15.975788"
     inkscape:window-width="1920"
     inkscape:window-height="994"
     inkscape:window-x="0"
     inkscape:window-y="0"
     inkscape:window-maximized="1"
     inkscape:current-layer="svg1" />
  <style
     type="text/css"
     id="current-color-scheme">.ColorScheme-Text {color:#fcfcfc;}</style>
  <g
     id="22-22-activities-5"
     transform="matrix(3.7795275,0,0,3.7795275,-32.000005,-9.9999995)">
    <rect
       style="opacity:0.003;fill:#000000;stroke-width:0.363802"
       id="rect1430-3-7-5-3"
       width="5.8208323"
       height="5.8208323"
       x="8.4666681"
       y="2.6458333" />
    <path
       d="m 13.229071,3.571875 c -0.0063,-0.047236 -0.07047,-0.1324927 -0.132196,-0.1322917 h -1.5875 c -0.06542,4.3e-6 -0.132292,0.081994 -0.132292,0.1322917 v 1.5875 c 5e-6,0.050312 0.06681,0.1322878 0.132292,0.1322908 h 1.5875 c 0.06538,-4.1e-6 0.13218,-0.081994 0.132198,-0.1322908 z m 0,2.3547917 c -0.006,-0.047236 -0.06325,-0.1060307 -0.124953,-0.1058337 h -1.594743 c -0.06542,5.7e-6 -0.132292,0.055535 -0.132292,0.1058337 v 1.6404167 c 6e-6,0.050306 0.06679,0.104468 0.132292,0.104473 h 1.594736 c 0.06539,-5.3e-6 0.124958,-0.05417 0.124976,-0.104473 z m -0.264488,-2.2225 V 5.0270834 H 11.641667 V 3.7041667 Z m 0,2.38125 v 1.3229167 h -1.322916 1.322917 z m -2.38125,-2.5541662 c -0.0034,-0.050314 -0.06681,-0.093932 -0.132291,-0.091576 -0.0654,0.0024 -0.135358,0.050275 -0.132292,0.1005808 v 2.6421119 c -9.82e-4,0.050756 0.06626,0.097418 0.132292,0.097418 0.066,0 0.133201,-0.046665 0.132291,-0.097418 z m -0.7937496,0 c -0.00298,-0.050314 -0.066862,-0.093932 -0.1322917,-0.091576 -0.065435,0.0024 -0.1353531,0.050275 -0.1322857,0.1005808 v 4.0352254 c -9.144e-4,0.050755 0.066264,0.097418 0.1322857,0.097418 0.066011,0 0.1332043,-0.046668 0.1322917,-0.097418 z"
       id="path2-3-6"
       style="fill:#bac8df;fill-opacity:1;stroke-width:0.0548266"
       sodipodi:nodetypes="cccccccccccccccccccccccccccccccccccccccccc" />
    <path
       d="M 12.7,4.3656232 C 12.7,4.5849186 12.522416,4.7625 12.303125,4.7625 c -0.21911,3e-7 -0.396875,-0.1775814 -0.396875,-0.3968768 0,-0.2191086 0.177765,-0.3968732 0.396875,-0.3968732 0.219291,0 0.396875,0.1777646 0.396875,0.3968732 z"
       id="path72-3-6"
       style="color:#e5e9ef;fill:#bac8df;fill-opacity:1;stroke-width:0.00472478"
       class="ColorScheme-Text" />
  </g>
</svg>
