<?xml version="1.0" encoding="UTF-8" standalone="no"?>
<!-- Created with Inkscape (http://www.inkscape.org/) -->

<svg
   width="22"
   version="1.1"
   height="22"
   id="svg1"
   sodipodi:docname="start-here-kde.svg"
   inkscape:version="1.3.2 (091e20ef0f, 2023-11-25)"
   xmlns:inkscape="http://www.inkscape.org/namespaces/inkscape"
   xmlns:sodipodi="http://sodipodi.sourceforge.net/DTD/sodipodi-0.dtd"
   xmlns="http://www.w3.org/2000/svg"
   xmlns:svg="http://www.w3.org/2000/svg">
  <sodipodi:namedview
     id="namedview1"
     pagecolor="#ffffff"
     bordercolor="#999999"
     borderopacity="1"
     inkscape:showpageshadow="2"
     inkscape:pageopacity="0"
     inkscape:pagecheckerboard="0"
     inkscape:deskcolor="#d1d1d1"
     inkscape:zoom="2.9765625"
     inkscape:cx="11.422572"
     inkscape:cy="11.086614"
     inkscape:window-width="1920"
     inkscape:window-height="994"
     inkscape:window-x="0"
     inkscape:window-y="0"
     inkscape:window-maximized="1"
     inkscape:current-layer="layer1" />
  <defs
     id="defs5455" />
  <metadata
     id="metadata5458" />
  <g
     inkscape:label="Capa 1"
     inkscape:groupmode="layer"
     id="layer1"
     transform="translate(-416.57143,-672.798)">
    <flowRoot
       line-height="125%"
       style="font-size:32.5px;font-family:sans-serif"
       id="flowRoot4170"><flowRegion
         id="flowRegion4172"><rect
           width="87.75001"
           x="452.32144"
           y="489.79807"
           height="48.750004"
           id="rect4174" /></flowRegion><flowPara
         id="flowPara4176">Plasm</flowPara></flowRoot>
    <g
       id="22-22-start-here-kde"
       transform="translate(416.57143,672.798)">
      <rect
         style="fill:none;fill-opacity:1;stroke:none"
         id="rect4150"
         width="22"
         height="22"
         x="0"
         y="0" />
      <path
         d="m 11,3 c -4.418,0 -8,3.582 -8,8 0,4.418 3.582,8 8,8 0.876667,0 1.712,-0.157333 2.5,-0.419267 -0.103333,-0.08067 -0.202848,-0.1645 -0.29818,-0.253899 C 10.501829,18.256154 8.333335,16.05 8.333335,13.333335 c 0,-2.761335 2.238665,-5 5,-5 2.716665,0 4.922821,2.168494 4.993487,4.868494 0.08868,0.096 0.172568,0.195515 0.253898,0.298181 C 18.842732,12.712 19,11.876667 19,11 19,6.582 15.418,3 11,3 Z m 4.666665,9.333335 a 3.3333335,3.3333335 0 0 0 0,6.666665 3.3333335,3.3333335 0 0 0 0,-6.666665 z"
         id="path1509-3"
         style="fill:#bac8df;fill-opacity:1;stroke:none;stroke-width:0.666665;stroke-opacity:1" />
    </g>
  </g>
</svg>
