<?xml version="1.0" encoding="UTF-8" standalone="no"?>
<svg
   width="48"
   height="48"
   version="1.1"
   id="svg10"
   sodipodi:docname="boxes.svg"
   inkscape:version="1.4.3 (unknown)"
   xmlns:inkscape="http://www.inkscape.org/namespaces/inkscape"
   xmlns:sodipodi="http://sodipodi.sourceforge.net/DTD/sodipodi-0.dtd"
   xmlns:xlink="http://www.w3.org/1999/xlink"
   xmlns="http://www.w3.org/2000/svg"
   xmlns:svg="http://www.w3.org/2000/svg">
  <defs
     id="defs10">
    <linearGradient
       id="linearGradient1"
       inkscape:collect="always">
      <stop
         style="stop-color:#363636;stop-opacity:1;"
         offset="0"
         id="stop1" />
      <stop
         style="stop-color:#6c6c6c;stop-opacity:1;"
         offset="1"
         id="stop2" />
    </linearGradient>
    <linearGradient
       inkscape:collect="always"
       xlink:href="#linearGradient1"
       id="linearGradient2"
       x1="28.868767"
       y1="44.263153"
       x2="27.698162"
       y2="3"
       gradientUnits="userSpaceOnUse" />
    <filter
       id="b"
       x="-0.075"
       y="-0.075"
       width="1.15"
       height="1.15"
       color-interpolation-filters="sRGB">
      <feGaussianBlur
         stdDeviation="1.125"
         id="feGaussianBlur2" />
    </filter>
    <filter
       id="c"
       x="-0.075"
       y="-0.075"
       width="1.15"
       height="1.15"
       color-interpolation-filters="sRGB">
      <feGaussianBlur
         stdDeviation="1.375"
         id="feGaussianBlur1" />
    </filter>
  </defs>
  <sodipodi:namedview
     id="namedview10"
     pagecolor="#ffffff"
     bordercolor="#999999"
     borderopacity="1"
     inkscape:showpageshadow="2"
     inkscape:pageopacity="0"
     inkscape:pagecheckerboard="0"
     inkscape:deskcolor="#d1d1d1"
     inkscape:zoom="5.953125"
     inkscape:cx="16.293963"
     inkscape:cy="45.606299"
     inkscape:window-width="1920"
     inkscape:window-height="994"
     inkscape:window-x="0"
     inkscape:window-y="0"
     inkscape:window-maximized="1"
     inkscape:current-layer="svg10" />
  <path
     style="opacity:0.2;stroke-width:0.743396"
     d="M 24,3.7368415 A 21,20.631577 0 0 0 3,24.368423 21,20.631577 0 0 0 24,45 21,20.631577 0 0 0 45,24.368423 21,20.631577 0 0 0 24,3.7368415 Z"
     id="path1" />
  <path
     style="fill:url(#linearGradient2);stroke-width:0.743396;fill-opacity:1"
     d="M 24,3 A 21,20.631577 0 0 0 3,23.631577 21,20.631577 0 0 0 24,44.263154 21,20.631577 0 0 0 45,23.631577 21,20.631577 0 0 0 24,3 Z"
     id="path2" />
  <path
     style="opacity:0.1;fill:#ffffff;stroke-width:0.743396"
     d="M 24,3 A 21,20.631577 0 0 0 3,23.631577 21,20.631577 0 0 0 3.016113,23.93091 21,20.631577 0 0 1 24,3.7368415 21,20.631577 0 0 1 44.983884,24.057575 21,20.631577 0 0 0 45.000004,23.631577 21,20.631577 0 0 0 24.000004,3 Z"
     id="path8" />
  <g
     id="g6"
     transform="matrix(0.63241108,0,0,0.63241108,3.7628459,3.2984348)">
    <path
       d="M 14,15 V 51 H 50 V 15 Z m 5.414,4 h 25.172 l -6,6 H 25.414 Z M 18,20.42 l 6,6 v 13.172 l -6,6 z m 28,0 v 25.172 l -6,-6 V 26.42 Z M 26,27 H 38 V 39 H 26 Z m -0.586,14 h 13.172 l 6,6 H 19.414 Z"
       filter="url(#b)"
       opacity="0.2"
       id="path3" />
    <path
       d="M 14,14 V 50 H 50 V 14 Z m 5.414,4 h 25.172 l -6,6 H 25.414 Z M 18,19.42 l 6,6 v 13.172 l -6,6 z m 28,0 v 25.172 l -6,-6 V 25.42 Z M 26,26 H 38 V 38 H 26 Z m -0.586,14 h 13.172 l 6,6 H 19.414 Z"
       fill="#cccccc"
       id="path4" />
    <path
       d="m 16,11 a 6,6 0 0 0 -6,6 6,6 0 0 0 6,6 6,6 0 0 0 6,-6 6,6 0 0 0 -6,-6 z m 32,0 a 6,6 0 0 0 -6,6 6,6 0 0 0 6,6 6,6 0 0 0 6,-6 6,6 0 0 0 -6,-6 z M 25,23 a 3,3 0 1 0 0,6 3,3 0 0 0 0,-6 z m 14,0 a 3,3 0 1 0 0,6 3,3 0 0 0 0,-6 z M 25,37 a 3,3 0 0 0 -3,3 3,3 0 0 0 3,3 3,3 0 0 0 3,-3 3,3 0 0 0 -3,-3 z m 14,0 a 3,3 0 0 0 -3,3 3,3 0 0 0 3,3 3,3 0 0 0 3,-3 3,3 0 0 0 -3,-3 z m -23,6 a 6,6 0 0 0 -6,6 6,6 0 0 0 6,6 6,6 0 0 0 6,-6 6,6 0 0 0 -6,-6 z m 32,0 a 6,6 0 0 0 -6,6 6,6 0 0 0 6,6 6,6 0 0 0 6,-6 6,6 0 0 0 -6,-6 z"
       filter="url(#c)"
       opacity="0.2"
       id="path5" />
    <path
       d="m 16,10 a 6,6 0 0 0 -6,6 6,6 0 0 0 6,6 6,6 0 0 0 6,-6 6,6 0 0 0 -6,-6 z m 32,0 a 6,6 0 0 0 -6,6 6,6 0 0 0 6,6 6,6 0 0 0 6,-6 6,6 0 0 0 -6,-6 z M 25,22 a 3,3 0 0 0 -3,3 3,3 0 0 0 3,3 3,3 0 0 0 3,-3 3,3 0 0 0 -3,-3 z m 14,0 a 3,3 0 0 0 -3,3 3,3 0 0 0 3,3 3,3 0 0 0 3,-3 3,3 0 0 0 -3,-3 z M 25,36 a 3,3 0 0 0 -3,3 3,3 0 0 0 3,3 3,3 0 0 0 3,-3 3,3 0 0 0 -3,-3 z m 14,0 a 3,3 0 0 0 -3,3 3,3 0 0 0 3,3 3,3 0 0 0 3,-3 3,3 0 0 0 -3,-3 z m -23,6 a 6,6 0 0 0 -6,6 6,6 0 0 0 6,6 6,6 0 0 0 6,-6 6,6 0 0 0 -6,-6 z m 32,0 a 6,6 0 0 0 -6,6 6,6 0 0 0 6,6 6,6 0 0 0 6,-6 6,6 0 0 0 -6,-6 z"
       fill="#ffffff"
       id="path6" />
  </g>
</svg>
