<?xml version="1.0" encoding="UTF-8" standalone="no"?>
<svg
   viewBox="0 0 22 22"
   version="1.1"
   id="svg1"
   sodipodi:docname="system-switch-user.svg"
   inkscape:version="1.3.2 (091e20ef0f, 2023-11-25)"
   xmlns:inkscape="http://www.inkscape.org/namespaces/inkscape"
   xmlns:sodipodi="http://sodipodi.sourceforge.net/DTD/sodipodi-0.dtd"
   xmlns="http://www.w3.org/2000/svg"
   xmlns:svg="http://www.w3.org/2000/svg">
  <sodipodi:namedview
     id="namedview1"
     pagecolor="#ffffff"
     bordercolor="#000000"
     borderopacity="0.25"
     inkscape:showpageshadow="2"
     inkscape:pageopacity="0.0"
     inkscape:pagecheckerboard="0"
     inkscape:deskcolor="#d1d1d1"
     inkscape:zoom="17.431818"
     inkscape:cx="20.19296"
     inkscape:cy="11.387223"
     inkscape:window-width="1920"
     inkscape:window-height="1003"
     inkscape:window-x="0"
     inkscape:window-y="0"
     inkscape:window-maximized="1"
     inkscape:current-layer="svg1"
     showgrid="false">
    <inkscape:grid
       id="grid1"
       units="px"
       originx="0"
       originy="0"
       spacingx="1"
       spacingy="1"
       empcolor="#0099e5"
       empopacity="0.30196078"
       color="#0099e5"
       opacity="0.14902"
       empspacing="5"
       dotted="false"
       gridanglex="30"
       gridanglez="30"
       visible="false" />
  </sodipodi:namedview>
  <defs
     id="defs1">
    <style
       type="text/css"
       id="style1">.ColorScheme-Text {
        color:#d8dee9;
      }</style>
  </defs>
  <path
     d="m 17.000071,9.8572091 c 0,-0.08999 -0.04185,-0.174834 -0.113938,-0.228832 l -3.42892,-2.57128 c -0.087,-0.06487 -0.202193,-0.07544 -0.299081,-0.02695 -0.09657,0.0482 -0.157985,0.147423 -0.157985,0.255707 v 1.142796 H 9.571315 c -0.157723,0 -0.285724,0.127985 -0.285724,0.285683 0,0.157705 0.128022,0.285701 0.285724,0.285701 h 3.714557 c 0.157681,0 0.285695,-0.128002 0.285695,-0.285701 v -0.857085 l 2.666487,1.999873 -2.666487,1.9998849 V 10.9999 c 0,-0.157708 -0.128014,-0.285691 -0.285695,-0.285691 H 8.999767 V 9.5714291 c 0,-0.10819 -0.06144,-0.20742 -0.157941,-0.25571 -0.09656,-0.04859 -0.212603,-0.03808 -0.29917,0.02695 L 5.113889,11.913937 c -0.07201,0.05405 -0.11396,0.138842 -0.11396,0.228843 0,0.08992 0.04184,0.17485 0.11396,0.228843 l 3.428709,2.571269 c 0.08699,0.06491 0.202333,0.07546 0.299203,0.0269 0.09653,-0.0482 0.157941,-0.147412 0.157941,-0.25569 v -1.142785 h 3.428886 c 0.157695,0 0.285711,-0.128001 0.285711,-0.285705 0,-0.157692 -0.128016,-0.285686 -0.285711,-0.285686 H 8.714051 c -0.157687,0 -0.285697,0.128001 -0.285697,0.285686 v 0.85709 l -2.66647,-1.999851 2.66647,-1.999865 v 0.857085 c 0,0.157705 0.128017,0.285701 0.285697,0.285701 h 4.286024 v 1.142778 c 0,0.108199 0.06141,0.207408 0.157987,0.255698 0.09656,0.04856 0.212634,0.03807 0.299124,-0.02692 l 3.428881,-2.571284 c 0.07201,-0.05405 0.113959,-0.1388529 0.113959,-0.2288389 z"
     id="path1-7"
     style="fill:#cd87de;fill-opacity:1;stroke-width:0.357135" />
  <path
     d="m 5.338988,5.3502311 c -3.144297,3.14629 -3.118568,8.2818009 0.07714,11.3955179 2.97668,2.900314 7.773512,3.018858 10.880161,0.258424 2.722085,-2.418706 3.444502,-6.272238 1.913087,-9.4542709 -0.183807,-0.381899 -0.664973,-0.513019 -1.027069,-0.29306 -0.324651,0.197241 -0.434386,0.60712 -0.271177,0.950296 1.261802,2.6531069 0.614366,5.8691409 -1.72271,7.8315589 -2.3705,1.990511 -5.887601,2.024 -8.293601,0.0766 C 3.826262,13.631611 3.650435,9.0979091 6.367351,6.3792821 c 1.980032,-1.981295 4.953337,-2.470246 7.433327,-1.286949 0.340908,0.16265 0.748317,0.05079 0.944328,-0.272312 l 0.0015,-0.002 c 0.218851,-0.361179 0.08985,-0.841673 -0.290533,-1.025198 -3.037763,-1.46548 -6.688696,-0.87234 -9.117135,1.55763 z"
     id="path1-0-9-9-6-7"
     style="fill:#cd87de;fill-opacity:1;stroke-width:0.363697" />
</svg>
