<svg xmlns="http://www.w3.org/2000/svg" xmlns:xlink="http://www.w3.org/1999/xlink" width="64" height="64" viewBox="0 0 64 64"><defs><linearGradient id="b"><stop offset="0" style="stop-color:#fff;stop-opacity:1"/><stop offset="1" style="stop-color:#bfc6dc;stop-opacity:0"/></linearGradient><linearGradient id="a"><stop offset="0" style="stop-color:#d6dae8;stop-opacity:0"/><stop offset="1" style="stop-color:#fff;stop-opacity:.44999999"/></linearGradient><linearGradient xlink:href="#b" id="d" x1="-34.619" x2="-34.619" y1="5.905" y2="8.589" gradientTransform="translate(71.91 2.301)" gradientUnits="userSpaceOnUse"/><linearGradient id="c"><stop offset="0" style="stop-color:#bec4db;stop-opacity:0"/><stop offset="1" style="stop-color:#fff;stop-opacity:.59929079"/></linearGradient><linearGradient xlink:href="#b" id="f" x1="-34.619" x2="-34.619" y1="5.905" y2="8.589" gradientTransform="translate(40.672 35.222)scale(.16564)" gradientUnits="userSpaceOnUse"/><linearGradient id="g" x1="42.694" x2="18.435" y1="33.9" y2="33.9" gradientTransform="matrix(.17071 0 0 .16071 28.716 34.912)" gradientUnits="userSpaceOnUse"><stop offset="0%" stop-color="#9baf03"/><stop offset="45.365%" stop-color="#4f6a00"/><stop offset="100%" stop-color="#a7bb00"/></linearGradient><radialGradient xlink:href="#a" id="h" cx="-40.551" cy="28.676" r="25.708" fx="-40.551" fy="28.676" gradientTransform="matrix(1 0 0 1.0493 71.91 -1.016)" gradientUnits="userSpaceOnUse"/><radialGradient xlink:href="#c" id="e" cx="-40.551" cy="24.291" r="25.708" fx="-40.551" fy="24.291" gradientTransform="matrix(.16564 0 0 .20346 40.672 33.862)" gradientUnits="userSpaceOnUse"/></defs><path d="M7.351 7.31c-.943 0-1.701.758-1.701 1.7l6.916 43.616a6.703 6.703 0 0 0 6.719 6.717H43.43a6.703 6.703 0 0 0 6.719-6.717L57.066 9.01c0-.943-.759-1.702-1.701-1.702H31.357Z" style="opacity:.57;fill:url(#d);fill-opacity:1;stroke:none;stroke-width:1.5;stroke-linecap:round;stroke-miterlimit:4;stroke-dasharray:none;stroke-opacity:1"/><path d="M7.351 7.31c-.943 0-1.701.758-1.701 1.7l6.916 43.616a6.703 6.703 0 0 0 6.719 6.717H43.43a6.703 6.703 0 0 0 6.719-6.717L57.066 9.01c0-.943-.759-1.702-1.701-1.702H31.357Z" style="opacity:1;fill:#bdc5db;fill-opacity:.80784314;stroke:none;stroke-width:1.5;stroke-linecap:round;stroke-miterlimit:4;stroke-dasharray:none;stroke-opacity:1"/><path d="M29.979 36.051a.28.28 0 0 0-.282.282l1.146 7.224a1.11 1.11 0 0 0 1.113 1.113h4a1.11 1.11 0 0 0 1.112-1.113l1.146-7.224a.28.28 0 0 0-.282-.282h-3.977z" style="fill:#bdc5db;fill-opacity:.807843;stroke:none;stroke-width:.248457;stroke-linecap:round;stroke-miterlimit:4;stroke-dasharray:none;stroke-opacity:1"/><path d="M15.459 37.184c-1.27-.02-2.511.733-3.1 2.013l-1.43 3.11 1.637 10.318c0 1.965.84 3.721 2.176 4.947l3.737 1.719q.396.048.806.05H40.34l2.764-6.01c.784-1.708.104-3.685-1.526-4.435L16.717 37.47a3.1 3.1 0 0 0-1.258-.285" style="fill:#6c763f;fill-opacity:1;stroke:none;stroke-width:.248457;stroke-linecap:round;stroke-miterlimit:4;stroke-dasharray:none;stroke-opacity:1"/><path d="M29.979 36.051a.28.28 0 0 0-.282.282l1.146 7.224a1.11 1.11 0 0 0 1.113 1.113h4a1.11 1.11 0 0 0 1.112-1.113l1.146-7.224a.28.28 0 0 0-.282-.282h-3.977z" style="fill:url(#e);fill-opacity:1;stroke:none;stroke-width:.248457;stroke-linecap:round;stroke-miterlimit:4;stroke-dasharray:none;stroke-opacity:1"/><path d="M29.979 36.051a.28.28 0 0 0-.282.282l1.146 7.224a1.11 1.11 0 0 0 1.113 1.113h4a1.11 1.11 0 0 0 1.112-1.113l1.146-7.224a.28.28 0 0 0-.282-.282h-3.977z" style="opacity:.57;fill:url(#f);fill-opacity:1;stroke:none;stroke-width:.248457;stroke-linecap:round;stroke-miterlimit:4;stroke-dasharray:none;stroke-opacity:1"/><path d="M34.047 38.952c-.463-.933-.95-.182-.95-.182l-.37.64.76.434zm1.646-.286-.41.227-.15-.259s-.117-.27-.69-.241c0 0-.71.02-.784.006 0 0 .201.039.302.19l.453.783-.331.183 1.111.023zm-2.725 2.257c-.575.87.336.887.336.887l.751-.024-.015-.86zM31.863 39.7l.412.224-.15.26s-.175.237.148.699c0 0 .386.582.412.65 0 0-.07-.187.01-.35l.45-.784.333.18-.558-.938zm3.469 1.092c1.06.066.63-.718.63-.718l-.389-.629-.761.433zm-1.124.666.568-.932v.372h.921c.185-.01.319-.163.319-.163-.049.055-.381.67-.381.67-.256.5-.554.466-.554.466h-.305v.46z" style="fill:url(#g);stroke-width:.165638"/><path d="M25.88 29.785a3.23 3.23 0 0 0-3.023 1.912L13.01 53.623a3.2 3.2 0 0 0-.219.707 6.7 6.7 0 0 0 3.768 4.436l.14.064c.795.33 1.669.512 2.586.512h7.072l9.745-21.696a3.23 3.23 0 0 0-1.627-4.279l-7.338-3.297a3.2 3.2 0 0 0-1.256-.285" style="fill:#adbd6a;fill-opacity:1;stroke:none;stroke-width:.248457;stroke-linecap:round;stroke-miterlimit:4;stroke-dasharray:none;stroke-opacity:1"/><rect width="14.099" height="23.298" x="43.481" y="-23.069" rx="3.237" ry="3.237" style="fill:#0cf;fill-opacity:1" transform="rotate(52.29)"/><rect width="16.008" height="24.775" x="25.845" y="10.604" rx="3.237" ry="3.237" style="fill:#95f;fill-opacity:1" transform="rotate(22.183)"/><path d="M27.268 30.566a3.23 3.23 0 0 0-3.12 1.752L13.162 53.695c-.154.3-.242.613-.297.928a6.705 6.705 0 0 0 6.42 4.719h7.3l10.478-20.387a3.23 3.23 0 0 0-1.4-4.36l-7.155-3.677a3.25 3.25 0 0 0-1.24-.352" style="fill:#37c871"/><path d="M15.463 30.326a3.23 3.23 0 0 0-2.588 1.596l-2.828 4.818 1.156 7.281 19.485 11.434a3.23 3.23 0 0 0 4.43-1.154l4.071-6.94a3.23 3.23 0 0 0-1.154-4.43l-20.73-12.163c-.58-.34-1.22-.48-1.842-.442" style="fill:#e580ff"/><rect width="14.099" height="23.298" x="23.794" y="-54.264" rx="3.237" ry="3.237" style="fill:#f95" transform="rotate(114.686)"/><path d="M48.691 30.893a3.23 3.23 0 0 0-3.12 1.75L34.585 54.02a3.23 3.23 0 0 0 1.398 4.36l1.871.96h5.577a6.703 6.703 0 0 0 6.718-6.716l3.12-19.666-3.34-1.715a3.2 3.2 0 0 0-1.239-.351" style="fill:#ff4343;fill-opacity:1"/><path d="M7.351 7.852c-.942 0-1.701.759-1.701 1.701l6.916 43.615a6.703 6.703 0 0 0 6.719 6.717H43.43a6.703 6.703 0 0 0 6.719-6.717l6.916-43.615c0-.942-.759-1.701-1.701-1.701H31.357Z" style="opacity:1;fill:url(#h);fill-opacity:1;stroke:none;stroke-width:1.5;stroke-linecap:round;stroke-miterlimit:4;stroke-dasharray:none;stroke-opacity:1"/></svg>