<svg xmlns="http://www.w3.org/2000/svg" xmlns:xlink="http://www.w3.org/1999/xlink" width="64" height="64" viewBox="0 0 64 64"><defs><linearGradient id="b"><stop offset="0" style="stop-color:#fff;stop-opacity:1"/><stop offset="1" style="stop-color:#bfc6dc;stop-opacity:0"/></linearGradient><linearGradient id="a"><stop offset="0" style="stop-color:#b6ebcb;stop-opacity:1"/><stop offset="1" style="stop-color:#43cd7b;stop-opacity:1"/></linearGradient><linearGradient xlink:href="#b" id="c" x1="-34.619" x2="-34.619" y1="5.905" y2="8.589" gradientTransform="translate(71.91 2.301)" gradientUnits="userSpaceOnUse"/><radialGradient xlink:href="#a" id="d" cx="-68.467" cy="22.387" r="25.708" fx="-68.467" fy="22.387" gradientTransform="rotate(16.088 -4.029 591.188)scale(2.22302 1.33952)" gradientUnits="userSpaceOnUse"/></defs><path d="M7.351 7.31c-.943 0-1.701.758-1.701 1.7l6.916 43.616a6.703 6.703 0 0 0 6.719 6.717H43.43a6.703 6.703 0 0 0 6.719-6.717L57.066 9.01c0-.943-.759-1.702-1.701-1.702H31.357Z" style="opacity:.57;fill:url(#c);fill-opacity:1;stroke:none;stroke-width:1.5;stroke-linecap:round;stroke-miterlimit:4;stroke-dasharray:none;stroke-opacity:1"/><path d="M7.351 7.31c-.943 0-1.701.758-1.701 1.7l6.916 43.616a6.703 6.703 0 0 0 6.719 6.717H43.43a6.703 6.703 0 0 0 6.719-6.717L57.066 9.01c0-.943-.759-1.702-1.701-1.702H31.357Z" style="opacity:1;fill:#cdd3e4;fill-opacity:.80784315;stroke:none;stroke-width:1.5;stroke-linecap:round;stroke-miterlimit:4;stroke-dasharray:none;stroke-opacity:1"/><path d="M7.351 7.852c-.942 0-1.701.759-1.701 1.701l6.916 43.615a6.703 6.703 0 0 0 6.719 6.717H43.43a6.703 6.703 0 0 0 6.719-6.717l6.916-43.615c0-.942-.759-1.701-1.701-1.701H31.357Z" style="opacity:1;fill:url(#d);fill-opacity:1;stroke:none;stroke-width:1.5;stroke-linecap:round;stroke-miterlimit:4;stroke-dasharray:none;stroke-opacity:1"/></svg>