<?xml version="1.0" encoding="UTF-8" standalone="no"?>
<svg
   viewBox="0 0 32 32"
   version="1.1"
   id="svg1"
   sodipodi:docname="dialog-cancel.svg"
   inkscape:version="1.3.2 (091e20ef0f, 2023-11-25)"
   width="32"
   height="32"
   xmlns:inkscape="http://www.inkscape.org/namespaces/inkscape"
   xmlns:sodipodi="http://sodipodi.sourceforge.net/DTD/sodipodi-0.dtd"
   xmlns="http://www.w3.org/2000/svg"
   xmlns:svg="http://www.w3.org/2000/svg">
  <sodipodi:namedview
     id="namedview1"
     pagecolor="#ffffff"
     bordercolor="#999999"
     borderopacity="1"
     inkscape:showpageshadow="2"
     inkscape:pageopacity="0"
     inkscape:pagecheckerboard="0"
     inkscape:deskcolor="#d1d1d1"
     showgrid="true"
     inkscape:zoom="8.41899"
     inkscape:cx="19.004655"
     inkscape:cy="28.744541"
     inkscape:window-width="1920"
     inkscape:window-height="996"
     inkscape:window-x="0"
     inkscape:window-y="0"
     inkscape:window-maximized="1"
     inkscape:current-layer="svg1">
    <inkscape:grid
       id="grid1"
       units="px"
       originx="-17"
       originy="-59"
       spacingx="1"
       spacingy="1"
       empcolor="#0099e5"
       empopacity="0.30196078"
       color="#0099e5"
       opacity="0.14902"
       empspacing="5"
       dotted="false"
       gridanglex="30"
       gridanglez="30"
       visible="true" />
  </sodipodi:namedview>
  <defs
     id="defs3051">
    <style
       type="text/css"
       id="current-color-scheme">.ColorScheme-Text { color: #fcfcfc; } </style>
  </defs>
  <path
     style="color:#000000;overflow:visible;opacity:0;fill:#d1d5e9;fill-opacity:1;stroke-width:1.06667"
     id="path951"
     overflow="visible"
     d="M 16,0 C 7.17237,0 0,7.17237 0,16 0,24.82763 7.17237,32 16,32 24.82763,32 32,24.82763 32,16 32,7.17237 24.82763,0 16,0 Z"
     inkscape:connector-curvature="0" />
  <path
     style="color:#d6dbf1;fill:none;fill-opacity:1;stroke:#bac8df;stroke-width:1.60083;stroke-linecap:round;stroke-miterlimit:4;stroke-dasharray:none;stroke-opacity:1;stop-color:#31363b"
     sodipodi:type="arc"
     sodipodi:cx="16.00009"
     sodipodi:cy="15.959485"
     sodipodi:rx="11.199486"
     sodipodi:ry="11.158997"
     sodipodi:start="1.6386839"
     sodipodi:end="0.010086277"
     sodipodi:arc-type="arc"
     d="M 15.240368,27.092777 A 11.199486,11.158997 0 0 1 4.8138388,15.417143 11.199486,11.158997 0 0 1 16.328785,4.8052955 11.199486,11.158997 0 0 1 27.199006,16.072036"
     id="path7-7-75"
     class="ColorScheme-Text"
     sodipodi:open="true" />
  <path
     d="m 23.496988,21.803604 2.433369,-2.433368 c 1.110138,-1.110148 2.814659,0.594363 1.693296,1.704557 l -2.422181,2.422196 2.422181,2.433366 c 1.121399,1.110142 -0.583085,2.814663 -1.693296,1.693293 l -2.433369,-2.422178 -2.422205,2.422178 c -1.110134,1.121402 -2.814648,-0.583075 -1.704546,-1.693293 l 2.433366,-2.433366 -2.433366,-2.422196 c -1.110149,-1.110139 0.594353,-2.814653 1.704546,-1.704557 z"
     fill-rule="evenodd"
     id="path1257"
     style="fill:#bac8df;fill-opacity:1;stroke:#bac8df;stroke-width:0.0188853;stroke-opacity:1;enable-background:new" />
</svg>
