<?xml version="1.0" encoding="UTF-8" standalone="no"?>
<svg
   viewBox="0 0 22 22"
   version="1.1"
   id="svg1"
   sodipodi:docname="system-switch-user.svg"
   inkscape:version="1.3.2 (091e20ef0f, 2023-11-25)"
   xmlns:inkscape="http://www.inkscape.org/namespaces/inkscape"
   xmlns:sodipodi="http://sodipodi.sourceforge.net/DTD/sodipodi-0.dtd"
   xmlns="http://www.w3.org/2000/svg"
   xmlns:svg="http://www.w3.org/2000/svg">
  <sodipodi:namedview
     id="namedview1"
     pagecolor="#ffffff"
     bordercolor="#000000"
     borderopacity="0.25"
     inkscape:showpageshadow="2"
     inkscape:pageopacity="0.0"
     inkscape:pagecheckerboard="0"
     inkscape:deskcolor="#d1d1d1"
     inkscape:zoom="17.431818"
     inkscape:cx="13.308996"
     inkscape:cy="15.976532"
     inkscape:window-width="1920"
     inkscape:window-height="1003"
     inkscape:window-x="0"
     inkscape:window-y="0"
     inkscape:window-maximized="1"
     inkscape:current-layer="svg1" />
  <defs
     id="defs1">
    <style
       type="text/css"
       id="style1">.ColorScheme-Text {
        color:#d8dee9;
      }</style>
  </defs>
  <path
     d="m 18.500116,9.5713951 c 0,-0.1124864 -0.05225,-0.2185424 -0.142421,-0.28604 l -4.28615,-3.2140996 c -0.108734,-0.081087 -0.252739,-0.094297 -0.373854,-0.033686 -0.12069,0.060248 -0.197478,0.1842783 -0.197478,0.3196333 V 7.7856956 H 9.2141715 c -0.197154,0 -0.357156,0.1599811 -0.357156,0.3571038 0,0.1971313 0.160028,0.3571263 0.357156,0.3571263 h 4.6431975 c 0.197099,0 0.357117,-0.1600024 0.357117,-0.3571263 V 7.0714436 l 3.333112,2.499841 -3.333112,2.4998534 v -1.071382 c 0,-0.197133 -0.160018,-0.357112 -0.357117,-0.357112 H 8.4997375 V 9.2141701 c 0,-0.1352376 -0.07677,-0.2592763 -0.197426,-0.3196387 -0.120701,-0.060738 -0.265755,-0.0476 -0.3739633,0.033684 L 3.6423901,12.142303 c -0.09001,0.06758 -0.1424498,0.173553 -0.1424498,0.286054 0,0.112377 0.052302,0.218564 0.1424498,0.286058 l 4.2858855,3.214083 c 0.1087369,0.08118 0.2529149,0.09426 0.3740049,0.03368 0.120659,-0.0602 0.197427,-0.184262 0.197427,-0.31961 V 14.21408 h 4.2861065 c 0.19712,0 0.357136,-0.160001 0.357136,-0.357128 0,-0.197114 -0.160016,-0.357108 -0.357136,-0.357108 H 8.1425915 c -0.1971084,0 -0.3571209,0.160002 -0.3571209,0.357108 v 1.071354 L 4.452384,12.428449 7.7854706,9.9286186 v 1.0713544 c 0,0.197131 0.1600212,0.357126 0.3571209,0.357126 h 5.3575335 v 1.428473 c 0,0.135252 0.07671,0.259262 0.197483,0.319624 0.120677,0.06066 0.265791,0.04765 0.373904,-0.03371 l 4.2861,-3.2141056 c 0.09001,-0.067566 0.142446,-0.173565 0.142446,-0.2860473 z"
     id="path1-7"
     style="fill:#cd87de;fill-opacity:1;stroke-width:0.357135" />
  <path
     d="M 3.9237641,3.9376731 C -0.00660676,7.8705352 0.02555424,14.289923 4.020187,18.182069 c 3.7208491,3.625393 9.716889,3.77357 13.600205,0.323031 3.402606,-3.023382 4.305625,-7.840297 2.391353,-11.8178384 -0.229752,-0.4773739 -0.831215,-0.641274 -1.283833,-0.366325 -0.405813,0.246551 -0.542984,0.7588999 -0.338973,1.18787 1.577257,3.3163834 0.76796,7.3364254 -2.153387,9.7894464 -2.963124,2.48814 -7.3595005,2.529997 -10.3670008,0.0958 C 2.0328565,14.289396 1.8130732,8.6222701 5.2092177,5.2239865 7.6842568,2.7473678 11.400886,2.1361789 14.500873,3.6153007 c 0.426139,0.2033122 0.935396,0.063483 1.18041,-0.3403907 l 0.0015,-0.00244 C 15.9567,2.8209331 15.795446,2.2203154 15.319973,1.9909094 11.522789,0.15906275 6.9591249,0.9004877 3.9235764,3.9379506 Z"
     id="path1-0-9-9-6-7"
     style="fill:#cd87de;fill-opacity:1;stroke-width:0.363696" />
</svg>
